# xmcd CD database file
#
# Track frame offsets:
#	150
#	28335
#	54905
#	77933
#	108163
#	145330
#	181193
#	201885
#	228543
#	253005
#	297510
#	328523
#
# Disc length: 4738 seconds
#
# Revision: 1
# Processed by: cddbd v1.5.2PL0 Copyright (c) Steve Scherf et al.
# Submitted via: CDex 1.51
#
DISCID=ae12800c
DTITLE=Various Artist - Living Style Jazz
DYEAR=2003
DGENRE=Jazz
TTITLE0=John Coltrane - Violets for Your Furs(Dennis-Adair)
TTITLE1=Blue Mitchell - I'll Close My Eyes(Kaye-Reid)
TTITLE2=Bobby Timmons - Moanin'(Bobby Timmons)
TTITLE3=Sonny Rolins - ST' Thomas(Sonny Rolins)
TTITLE4=Red Garland - C Jam Blues(Duke Ellinton)
TTITLE5=M.J.Q - Sofily ,as in a Morning Su rise
TTITLE6=Kenny Dorham - Lotus Blossom (Kenny Dorham)
TTITLE7=Bill Evans - Autumn Leaves
TTITLE8=Art Pepper - You'd be so Nice to come Home to (Cole Porter)
TTITLE9=Jackie Mclean - Sentimental Jorney
TTITLE10=Bill Evans - Waltz for Debby (Evans Lees)
TTITLE11=Miles Davis - My Funny Valentine(Rodgers-Hart)
EXTD=YEAR: 2003
EXTT0=
EXTT1=
EXTT2=
EXTT3=
EXTT4=
EXTT5=
EXTT6=
EXTT7=
EXTT8=
EXTT9=
EXTT10=
EXTT11=
PLAYORDER=
